<?xml version="1.0" encoding="UTF-8"?>
<svg width="800" height="400" viewBox="0 0 800 400" fill="none" xmlns="http://www.w3.org/2000/svg">
  <rect width="800" height="400" fill="#1E1E2F"/>
  
  <!-- Tech pattern background -->
  <g opacity="0.2">
    <circle cx="100" cy="100" r="5" fill="#6d28d9"/>
    <circle cx="200" cy="150" r="5" fill="#6d28d9"/>
    <circle cx="300" cy="100" r="5" fill="#6d28d9"/>
    <circle cx="400" cy="150" r="5" fill="#6d28d9"/>
    <circle cx="500" cy="100" r="5" fill="#6d28d9"/>
    <circle cx="600" cy="150" r="5" fill="#6d28d9"/>
    <circle cx="700" cy="100" r="5" fill="#6d28d9"/>
    <circle cx="100" cy="200" r="5" fill="#6d28d9"/>
    <circle cx="200" cy="250" r="5" fill="#6d28d9"/>
    <circle cx="300" cy="200" r="5" fill="#6d28d9"/>
    <circle cx="400" cy="250" r="5" fill="#6d28d9"/>
    <circle cx="500" cy="200" r="5" fill="#6d28d9"/>
    <circle cx="600" cy="250" r="5" fill="#6d28d9"/>
    <circle cx="700" cy="200" r="5" fill="#6d28d9"/>
    <circle cx="100" cy="300" r="5" fill="#6d28d9"/>
    <circle cx="200" cy="350" r="5" fill="#6d28d9"/>
    <circle cx="300" cy="300" r="5" fill="#6d28d9"/>
    <circle cx="400" cy="350" r="5" fill="#6d28d9"/>
    <circle cx="500" cy="300" r="5" fill="#6d28d9"/>
    <circle cx="600" cy="350" r="5" fill="#6d28d9"/>
    <circle cx="700" cy="300" r="5" fill="#6d28d9"/>
  </g>

  <!-- Digital marketing elements -->
  
  <!-- Analytics graph -->
  <g transform="translate(150, 80)">
    <rect x="0" y="0" width="250" height="150" rx="4" fill="#2A2A40" stroke="#6d28d9" stroke-width="2"/>
    <line x1="30" y1="30" x2="30" y2="130" stroke="#6d28d9" stroke-width="2" stroke-linecap="round"/>
    <line x1="30" y1="130" x2="230" y2="130" stroke="#6d28d9" stroke-width="2" stroke-linecap="round"/>
    
    <!-- Graph bars -->
    <rect x="50" y="90" width="20" height="40" rx="2" fill="#9333EA" opacity="0.6"/>
    <rect x="80" y="70" width="20" height="60" rx="2" fill="#9333EA" opacity="0.7"/>
    <rect x="110" y="50" width="20" height="80" rx="2" fill="#9333EA" opacity="0.8"/>
    <rect x="140" y="80" width="20" height="50" rx="2" fill="#9333EA" opacity="0.7"/>
    <rect x="170" y="60" width="20" height="70" rx="2" fill="#9333EA" opacity="0.9"/>
    <rect x="200" y="40" width="20" height="90" rx="2" fill="#9333EA" opacity="0.8"/>
    
    <!-- Axis labels -->
    <rect x="25" y="20" width="30" height="5" rx="2" fill="#6d28d9" opacity="0.5"/>
    <rect x="230" y="125" width="10" height="5" rx="2" fill="#6d28d9" opacity="0.5"/>
  </g>
  
  <!-- SEO elements -->
  <g transform="translate(450, 80)">
    <rect x="0" y="0" width="200" height="100" rx="4" fill="#1A1A2E" stroke="#6d28d9" stroke-width="1"/>
    <rect x="10" y="10" width="100" height="10" rx="2" fill="#9333EA" opacity="0.7"/>
    <rect x="10" y="30" width="180" height="6" rx="2" fill="#6d28d9" opacity="0.5"/>
    <rect x="10" y="45" width="160" height="6" rx="2" fill="#6d28d9" opacity="0.5"/>
    <rect x="10" y="60" width="170" height="6" rx="2" fill="#6d28d9" opacity="0.5"/>
    <rect x="10" y="75" width="150" height="6" rx="2" fill="#6d28d9" opacity="0.5"/>
  </g>
  
  <!-- Social media icons -->
  <g transform="translate(450, 200)">
    <circle cx="25" cy="25" r="20" fill="#1A1A2E" stroke="#6d28d9" stroke-width="1"/>
    <text x="25" y="31" text-anchor="middle" font-family="Arial" font-size="18" font-weight="bold" fill="#9333EA">f</text>
    
    <circle cx="75" cy="25" r="20" fill="#1A1A2E" stroke="#6d28d9" stroke-width="1"/>
    <text x="75" y="31" text-anchor="middle" font-family="Arial" font-size="18" font-weight="bold" fill="#9333EA">t</text>
    
    <circle cx="125" cy="25" r="20" fill="#1A1A2E" stroke="#6d28d9" stroke-width="1"/>
    <text x="125" y="31" text-anchor="middle" font-family="Arial" font-size="18" font-weight="bold" fill="#9333EA">in</text>
    
    <circle cx="175" cy="25" r="20" fill="#1A1A2E" stroke="#6d28d9" stroke-width="1"/>
    <text x="175" y="31" text-anchor="middle" font-family="Arial" font-size="18" font-weight="bold" fill="#9333EA">ig</text>
  </g>
  
  <!-- Marketing funnel -->
  <g transform="translate(200, 240)">
    <path d="M0,0 L150,0 L120,60 L30,60 Z" fill="#1A1A2E" stroke="#6d28d9" stroke-width="1"/>
    <path d="M30,60 L120,60 L100,100 L50,100 Z" fill="#1A1A2E" stroke="#6d28d9" stroke-width="1"/>
    <path d="M50,100 L100,100 L80,140 L70,140 Z" fill="#1A1A2E" stroke="#6d28d9" stroke-width="1"/>
    
    <rect x="45" y="20" width="60" height="8" rx="2" fill="#9333EA" opacity="0.7"/>
    <rect x="50" y="75" width="50" height="8" rx="2" fill="#9333EA" opacity="0.7"/>
    <rect x="60" y="115" width="30" height="8" rx="2" fill="#9333EA" opacity="0.7"/>
  </g>
  
  <!-- Digital Marketing text -->
  <text x="400" y="360" text-anchor="middle" font-family="Arial" font-size="24" font-weight="bold" fill="white">Digital Marketing</text>
</svg>