<?xml version="1.0" encoding="UTF-8"?>
<svg width="800" height="400" viewBox="0 0 800 400" fill="none" xmlns="http://www.w3.org/2000/svg">
  <rect width="800" height="400" fill="#1E1E2F"/>
  
  <!-- Tech pattern background -->
  <g opacity="0.2">
    <circle cx="100" cy="100" r="5" fill="#6d28d9"/>
    <circle cx="200" cy="150" r="5" fill="#6d28d9"/>
    <circle cx="300" cy="100" r="5" fill="#6d28d9"/>
    <circle cx="400" cy="150" r="5" fill="#6d28d9"/>
    <circle cx="500" cy="100" r="5" fill="#6d28d9"/>
    <circle cx="600" cy="150" r="5" fill="#6d28d9"/>
    <circle cx="700" cy="100" r="5" fill="#6d28d9"/>
    <circle cx="100" cy="200" r="5" fill="#6d28d9"/>
    <circle cx="200" cy="250" r="5" fill="#6d28d9"/>
    <circle cx="300" cy="200" r="5" fill="#6d28d9"/>
    <circle cx="400" cy="250" r="5" fill="#6d28d9"/>
    <circle cx="500" cy="200" r="5" fill="#6d28d9"/>
    <circle cx="600" cy="250" r="5" fill="#6d28d9"/>
    <circle cx="700" cy="200" r="5" fill="#6d28d9"/>
    <circle cx="100" cy="300" r="5" fill="#6d28d9"/>
    <circle cx="200" cy="350" r="5" fill="#6d28d9"/>
    <circle cx="300" cy="300" r="5" fill="#6d28d9"/>
    <circle cx="400" cy="350" r="5" fill="#6d28d9"/>
    <circle cx="500" cy="300" r="5" fill="#6d28d9"/>
    <circle cx="600" cy="350" r="5" fill="#6d28d9"/>
    <circle cx="700" cy="300" r="5" fill="#6d28d9"/>
    
    <!-- Connection lines -->
    <line x1="100" y1="100" x2="200" y2="150" stroke="#6d28d9" stroke-width="1"/>
    <line x1="200" y1="150" x2="300" y2="100" stroke="#6d28d9" stroke-width="1"/>
    <line x1="300" y1="100" x2="400" y2="150" stroke="#6d28d9" stroke-width="1"/>
    <line x1="400" y1="150" x2="500" y2="100" stroke="#6d28d9" stroke-width="1"/>
    <line x1="500" y1="100" x2="600" y2="150" stroke="#6d28d9" stroke-width="1"/>
    <line x1="600" y1="150" x2="700" y2="100" stroke="#6d28d9" stroke-width="1"/>
    
    <line x1="100" y1="200" x2="200" y2="250" stroke="#6d28d9" stroke-width="1"/>
    <line x1="200" y1="250" x2="300" y2="200" stroke="#6d28d9" stroke-width="1"/>
    <line x1="300" y1="200" x2="400" y2="250" stroke="#6d28d9" stroke-width="1"/>
    <line x1="400" y1="250" x2="500" y2="200" stroke="#6d28d9" stroke-width="1"/>
    <line x1="500" y1="200" x2="600" y2="250" stroke="#6d28d9" stroke-width="1"/>
    <line x1="600" y1="250" x2="700" y2="200" stroke="#6d28d9" stroke-width="1"/>
    
    <line x1="100" y1="300" x2="200" y2="350" stroke="#6d28d9" stroke-width="1"/>
    <line x1="200" y1="350" x2="300" y2="300" stroke="#6d28d9" stroke-width="1"/>
    <line x1="300" y1="300" x2="400" y2="350" stroke="#6d28d9" stroke-width="1"/>
    <line x1="400" y1="350" x2="500" y2="300" stroke="#6d28d9" stroke-width="1"/>
    <line x1="500" y1="300" x2="600" y2="350" stroke="#6d28d9" stroke-width="1"/>
    <line x1="600" y1="350" x2="700" y2="300" stroke="#6d28d9" stroke-width="1"/>
    
    <line x1="100" y1="100" x2="100" y2="200" stroke="#6d28d9" stroke-width="1"/>
    <line x1="200" y1="150" x2="200" y2="250" stroke="#6d28d9" stroke-width="1"/>
    <line x1="300" y1="100" x2="300" y2="200" stroke="#6d28d9" stroke-width="1"/>
    <line x1="400" y1="150" x2="400" y2="250" stroke="#6d28d9" stroke-width="1"/>
    <line x1="500" y1="100" x2="500" y2="200" stroke="#6d28d9" stroke-width="1"/>
    <line x1="600" y1="150" x2="600" y2="250" stroke="#6d28d9" stroke-width="1"/>
    <line x1="700" y1="100" x2="700" y2="200" stroke="#6d28d9" stroke-width="1"/>
    
    <line x1="100" y1="200" x2="100" y2="300" stroke="#6d28d9" stroke-width="1"/>
    <line x1="200" y1="250" x2="200" y2="350" stroke="#6d28d9" stroke-width="1"/>
    <line x1="300" y1="200" x2="300" y2="300" stroke="#6d28d9" stroke-width="1"/>
    <line x1="400" y1="250" x2="400" y2="350" stroke="#6d28d9" stroke-width="1"/>
    <line x1="500" y1="200" x2="500" y2="300" stroke="#6d28d9" stroke-width="1"/>
    <line x1="600" y1="250" x2="600" y2="350" stroke="#6d28d9" stroke-width="1"/>
    <line x1="700" y1="200" x2="700" y2="300" stroke="#6d28d9" stroke-width="1"/>
  </g>

  <!-- Stylized browser window -->
  <rect x="250" y="80" width="300" height="240" rx="8" fill="#2A2A40" stroke="#6d28d9" stroke-width="2"/>
  
  <!-- Browser header -->
  <rect x="250" y="80" width="300" height="30" rx="8" fill="#1A1A2E" stroke="#6d28d9" stroke-width="2"/>
  
  <!-- Browser buttons -->
  <circle cx="270" cy="95" r="5" fill="#FF5F57"/>
  <circle cx="290" cy="95" r="5" fill="#FFBD2E"/>
  <circle cx="310" cy="95" r="5" fill="#28CA41"/>
  
  <!-- Address bar -->
  <rect x="330" y="87" width="200" height="16" rx="4" fill="#151523"/>
  
  <!-- Browser content -->
  <rect x="260" y="120" width="280" height="190" rx="4" fill="#151523"/>
  
  <!-- Code elements -->
  <rect x="270" y="130" width="120" height="10" rx="2" fill="#6d28d9" opacity="0.7"/>
  <rect x="270" y="150" width="260" height="10" rx="2" fill="#6d28d9" opacity="0.5"/>
  <rect x="270" y="170" width="200" height="10" rx="2" fill="#6d28d9" opacity="0.6"/>
  <rect x="270" y="190" width="240" height="10" rx="2" fill="#6d28d9" opacity="0.4"/>
  <rect x="270" y="210" width="180" height="10" rx="2" fill="#6d28d9" opacity="0.5"/>
  <rect x="270" y="230" width="260" height="10" rx="2" fill="#6d28d9" opacity="0.7"/>
  <rect x="270" y="250" width="220" height="10" rx="2" fill="#6d28d9" opacity="0.6"/>
  <rect x="270" y="270" width="200" height="10" rx="2" fill="#6d28d9" opacity="0.5"/>
  
  <!-- Web Development text -->
  <text x="400" y="350" text-anchor="middle" font-family="Arial" font-size="24" font-weight="bold" fill="white">Web Development</text>
</svg>