<?xml version="1.0" encoding="UTF-8"?>
<svg width="400" height="400" viewBox="0 0 400 400" fill="none" xmlns="http://www.w3.org/2000/svg">
  <!-- Monitor Base -->
  <path d="M140,300 L260,300 L270,320 L130,320 Z" fill="#333" stroke="#6d28d9" stroke-width="2" />
  <rect x="130" y="320" width="140" height="10" rx="2" fill="#222" stroke="#6d28d9" stroke-width="1" />
  
  <!-- Monitor Stand -->
  <rect x="190" y="270" width="20" height="30" fill="#444" stroke="#6d28d9" stroke-width="1" />
  
  <!-- Monitor Frame -->
  <rect x="100" y="150" width="200" height="120" rx="5" fill="#333" stroke="#6d28d9" stroke-width="2" />
  
  <!-- Monitor Screen -->
  <rect x="110" y="160" width="180" height="100" fill="#1a1a2e" stroke="#6d28d9" stroke-width="1" />
  
  <!-- Code on Screen -->
  <text x="120" y="175" font-family="monospace" font-size="6" fill="#6d28d9">function Native254() {</text>
  <text x="120" y="185" font-family="monospace" font-size="6" fill="#a78bfa">  return (</text>
  <text x="120" y="195" font-family="monospace" font-size="6" fill="#e0e0e0">    &lt;div className="tech"&gt;</text>
  <text x="120" y="205" font-family="monospace" font-size="6" fill="#e0e0e0">      &lt;h1&gt;Innovation&lt;/h1&gt;</text>
  <text x="120" y="215" font-family="monospace" font-size="6" fill="#e0e0e0">      &lt;p&gt;Building the future&lt;/p&gt;</text>
  <text x="120" y="225" font-family="monospace" font-size="6" fill="#e0e0e0">    &lt;/div&gt;</text>
  <text x="120" y="235" font-family="monospace" font-size="6" fill="#a78bfa">  );</text>
  <text x="120" y="245" font-family="monospace" font-size="6" fill="#6d28d9">}</text>
  
  <!-- Keyboard -->
  <rect x="120" y="330" width="160" height="40" rx="5" fill="#444" stroke="#6d28d9" stroke-width="1" />
  
  <!-- Keyboard Keys (Simplified) -->
  <rect x="130" y="335" width="140" height="30" rx="2" fill="#333" />
  <rect x="135" y="340" width="10" height="5" rx="1" fill="#222" />
  <rect x="150" y="340" width="10" height="5" rx="1" fill="#222" />
  <rect x="165" y="340" width="10" height="5" rx="1" fill="#222" />
  <rect x="180" y="340" width="10" height="5" rx="1" fill="#222" />
  <rect x="195" y="340" width="10" height="5" rx="1" fill="#222" />
  <rect x="210" y="340" width="10" height="5" rx="1" fill="#222" />
  <rect x="225" y="340" width="10" height="5" rx="1" fill="#222" />
  <rect x="240" y="340" width="10" height="5" rx="1" fill="#222" />
  <rect x="255" y="340" width="10" height="5" rx="1" fill="#222" />
  
  <rect x="135" y="350" width="10" height="5" rx="1" fill="#222" />
  <rect x="150" y="350" width="10" height="5" rx="1" fill="#222" />
  <rect x="165" y="350" width="10" height="5" rx="1" fill="#222" />
  <rect x="180" y="350" width="10" height="5" rx="1" fill="#222" />
  <rect x="195" y="350" width="10" height="5" rx="1" fill="#222" />
  <rect x="210" y="350" width="10" height="5" rx="1" fill="#222" />
  <rect x="225" y="350" width="10" height="5" rx="1" fill="#222" />
  <rect x="240" y="350" width="10" height="5" rx="1" fill="#222" />
  <rect x="255" y="350" width="10" height="5" rx="1" fill="#222" />
  
  <!-- Mouse -->
  <ellipse cx="310" cy="350" rx="15" ry="20" fill="#444" stroke="#6d28d9" stroke-width="1" />
  <line x1="310" y1="340" x2="310" y2="350" stroke="#222" stroke-width="1" />
  
  <!-- Circuit board patterns in background -->
  <path d="M30,100 L50,100 L50,120 L70,120 L70,140 L90,140 L90,160" stroke="#6d28d9" stroke-width="1" fill="none" />
  <path d="M370,100 L350,100 L350,120 L330,120 L330,140 L310,140 L310,160" stroke="#6d28d9" stroke-width="1" fill="none" />
  <circle cx="30" cy="100" r="3" fill="#6d28d9" />
  <circle cx="50" cy="120" r="3" fill="#6d28d9" />
  <circle cx="70" cy="140" r="3" fill="#6d28d9" />
  <circle cx="90" cy="160" r="3" fill="#6d28d9" />
  <circle cx="370" cy="100" r="3" fill="#6d28d9" />
  <circle cx="350" cy="120" r="3" fill="#6d28d9" />
  <circle cx="330" cy="140" r="3" fill="#6d28d9" />
  <circle cx="310" cy="160" r="3" fill="#6d28d9" />
  
  <!-- Digital particles effect -->
  <circle cx="100" cy="100" r="2" fill="#6d28d9" opacity="0.7" />
  <circle cx="120" cy="80" r="2" fill="#6d28d9" opacity="0.5" />
  <circle cx="140" cy="110" r="2" fill="#6d28d9" opacity="0.6" />
  <circle cx="160" cy="90" r="2" fill="#6d28d9" opacity="0.8" />
  <circle cx="180" cy="120" r="2" fill="#6d28d9" opacity="0.4" />
  <circle cx="200" cy="70" r="2" fill="#6d28d9" opacity="0.7" />
  <circle cx="220" cy="100" r="2" fill="#6d28d9" opacity="0.5" />
  <circle cx="240" cy="80" r="2" fill="#6d28d9" opacity="0.9" />
  <circle cx="260" cy="110" r="2" fill="#6d28d9" opacity="0.6" />
  <circle cx="280" cy="90" r="2" fill="#6d28d9" opacity="0.4" />
  <circle cx="300" cy="120" r="2" fill="#6d28d9" opacity="0.7" />
  
  <!-- CPU chip design -->
  <rect x="50" y="50" width="40" height="40" fill="none" stroke="#6d28d9" stroke-width="1" />
  <line x1="60" y1="50" x2="60" y2="90" stroke="#6d28d9" stroke-width="0.5" />
  <line x1="70" y1="50" x2="70" y2="90" stroke="#6d28d9" stroke-width="0.5" />
  <line x1="80" y1="50" x2="80" y2="90" stroke="#6d28d9" stroke-width="0.5" />
  <line x1="50" y1="60" x2="90" y2="60" stroke="#6d28d9" stroke-width="0.5" />
  <line x1="50" y1="70" x2="90" y2="70" stroke="#6d28d9" stroke-width="0.5" />
  <line x1="50" y1="80" x2="90" y2="80" stroke="#6d28d9" stroke-width="0.5" />
  
  <!-- Binary data visualization -->
  <text x="310" y="50" font-family="monospace" font-size="8" fill="#6d28d9">01001110</text>
  <text x="310" y="60" font-family="monospace" font-size="8" fill="#6d28d9">01100001</text>
  <text x="310" y="70" font-family="monospace" font-size="8" fill="#6d28d9">01110100</text>
  <text x="310" y="80" font-family="monospace" font-size="8" fill="#6d28d9">01101001</text>
  <text x="310" y="90" font-family="monospace" font-size="8" fill="#6d28d9">01110110</text>
  <text x="310" y="100" font-family="monospace" font-size="8" fill="#6d28d9">01100101</text>
</svg>